<?xml version="1.0"?>
<svg xmlns="http://www.w3.org/2000/svg" fill="#D63885" viewBox="0 0 512 512" width="512" height="512"><g id="Outline"><path d="M461.3,393.275A840.639,840.639,0,0,0,471.523,287.68c.3-2.52.477-55.68.477-55.68A216,216,0,0,0,108.551,74.155l10.925,11.69A199.281,199.281,0,0,1,256,32c110.28,0,200,89.72,200,200v5.736a63.874,63.874,0,0,0-43.4-21.553L326.826,75.829a8,8,0,0,0-13.482-.267C265.1,147.921,210.765,182.241,173.675,198.291,133.487,215.681,104.274,216,104,216a63.85,63.85,0,0,0-48,21.736V232A199.281,199.281,0,0,1,109.845,95.476L98.155,84.551A215.227,215.227,0,0,0,40,232s.17,53.1.466,55.593A837.514,837.514,0,0,0,72.309,490.2,8,8,0,0,0,80,496H432a8,8,0,0,0,7.691-5.8c7.578-26.485,13.915-53.66,18.836-80.771l-15.742-2.858c-4.469,24.617-10.129,49.29-16.841,73.429H397.9a199.17,199.17,0,0,0,14.435-38.06l-15.523-3.88c-.061.245-5.893,23.24-17.207,41.94H325.924a161.487,161.487,0,0,0,56.387-45.773,158.183,158.183,0,0,0,33.513-90.722,63.857,63.857,0,0,0,37.57-18.439c-1.754,22.008-4.388,43.946-7.892,65.659ZM112,269.41l16,44v88.7A142.71,142.71,0,0,1,112,336Zm-55.832,6.662A48.092,48.092,0,0,1,96,232.667v94.666a48.114,48.114,0,0,1-39.563-40.855Q56.269,281.278,56.168,276.072ZM132.4,480c-11.277-18.649-17.147-41.7-17.208-41.944L99.667,441.94A199.17,199.17,0,0,0,114.1,480H86.055A821.628,821.628,0,0,1,58.6,325.061a63.856,63.856,0,0,0,37.574,18.444,158.183,158.183,0,0,0,33.513,90.722A161.487,161.487,0,0,0,186.076,480ZM256,480a142.707,142.707,0,0,1-66.111-16H322.111A142.71,142.71,0,0,1,256,480Zm112-53.506A145.316,145.316,0,0,1,346.494,448H165.506A145.275,145.275,0,0,1,144,426.493V416H368ZM368,352H216v16H368v32H144V368h56V352H144V320H368Zm2.4-48H242.775l5.116-30.684-15.782-2.632L226.553,304H141.6l-26.477-72.811c12.836-1.494,35.808-5.743,64.024-17.836,3.006-1.288,6.129-2.7,9.336-4.224a69.281,69.281,0,0,1,23.4,8.81l8.232-13.719a86.03,86.03,0,0,0-11.383-5.727C242.322,179.116,282.45,147.167,319.606,94.7l79.559,130.187ZM400,336a142.707,142.707,0,0,1-16,66.111v-88.7l16-44Zm16-8.667V232.667a48.092,48.092,0,0,1,39.836,43.456q-.105,5.22-.284,10.443A48.114,48.114,0,0,1,416,327.333ZM104,176l-1.331-7.889c.27-.046,27.409-4.767,59.187-20.5,28.929-14.323,67.83-41.033,88.872-86.942l14.544,6.666c-18.266,39.854-51.731,72.65-96.778,94.843-33.817,16.661-61.987,21.515-63.17,21.714Zm276.116,28.22-8.232,13.719a69.617,69.617,0,0,0-71.768,0l-8.232-13.719A85.587,85.587,0,0,1,380.116,204.22ZM176,240a24,24,0,1,0,24,24A24.027,24.027,0,0,0,176,240Zm0,32a8,8,0,1,1,8-8A8.009,8.009,0,0,1,176,272Zm160-32a24,24,0,1,0,24,24A24.027,24.027,0,0,0,336,240Zm0,32a8,8,0,1,1,8-8A8.009,8.009,0,0,1,336,272Z"/></g></svg>
