<svg id="Outline" height="512" fill="#D63885" viewBox="0 0 512 512" width="512" xmlns="http://www.w3.org/2000/svg"><g><path d="m414 152h4a38.043 38.043 0 0 0 38-38v-12a38.043 38.043 0 0 0 -38-38h-4a38.043 38.043 0 0 0 -38 38v12a38.043 38.043 0 0 0 38 38zm-22-50a22.025 22.025 0 0 1 22-22h4a22.025 22.025 0 0 1 22 22v12a22.025 22.025 0 0 1 -22 22h-4a22.025 22.025 0 0 1 -22-22z"/><path d="m468 160h-104a28.032 28.032 0 0 0 -28 28v80a28.032 28.032 0 0 0 28 28h4v124a28.032 28.032 0 0 0 28 28h40a28.032 28.032 0 0 0 28-28v-36h-16v36a12.013 12.013 0 0 1 -12 12h-12v-136h-16v136h-12a12.013 12.013 0 0 1 -12-12v-212h-16v72h-4a12.013 12.013 0 0 1 -12-12v-80a12.013 12.013 0 0 1 12-12h104a12.013 12.013 0 0 1 12 12v80a12.013 12.013 0 0 1 -12 12h-4v-72h-16v160h16v-72h4a28.032 28.032 0 0 0 28-28v-80a28.032 28.032 0 0 0 -28-28z"/><path d="m408 192h16v24h-16z"/><path d="m408 232h16v16h-16z"/><path d="m94 152h4a38.043 38.043 0 0 0 38-38v-12a38.043 38.043 0 0 0 -38-38h-4a38.043 38.043 0 0 0 -38 38v12a38.043 38.043 0 0 0 38 38zm-22-50a22.025 22.025 0 0 1 22-22h4a22.025 22.025 0 0 1 22 22v12a22.025 22.025 0 0 1 -22 22h-4a22.025 22.025 0 0 1 -22-22z"/><path d="m176 268v-80a28.032 28.032 0 0 0 -28-28h-104a28.032 28.032 0 0 0 -28 28v20h16v-20a12.013 12.013 0 0 1 12-12h104a12.013 12.013 0 0 1 12 12v80a12.013 12.013 0 0 1 -12 12h-4v-72h-16v212a12.013 12.013 0 0 1 -12 12h-12v-136h-16v136h-12a12.013 12.013 0 0 1 -12-12v-212h-16v72h-4a12.013 12.013 0 0 1 -12-12v-44h-16v44a28.032 28.032 0 0 0 28 28h4v124a28.032 28.032 0 0 0 28 28h40a28.032 28.032 0 0 0 28-28v-124h4a28.032 28.032 0 0 0 28-28z"/><path d="m88 192h16v24h-16z"/><path d="m88 232h16v16h-16z"/><path d="m336 424h-160v-8h-16v32h16v-8h160v8h16v-32h-16z"/></g></svg>
