<?xml version="1.0"?>
<svg xmlns="http://www.w3.org/2000/svg" fill="#D63885" viewBox="0 0 512 512" width="512" height="512"><g id="Outline"><path d="M448,368V264a88.016,88.016,0,0,0-79.21-87.566l-1.58,15.922A72.014,72.014,0,0,1,432,264v72H376V304H360V480H152V312a8,8,0,0,0-10.612-7.562l-19.133,6.612,43.658-101.872a96,96,0,0,0,185.693-24.45c.261-2.859.394-5.8.394-8.728V160a32,32,0,0,0,0-64V88a72.081,72.081,0,0,0-72-72H192a32.02,32.02,0,0,0-31.391,25.749,24.893,24.893,0,0,0-33.164,16.558c-.013.047-.026.095-.038.143l-4.981,19.577,15.506,3.946,4.96-19.493a8.886,8.886,0,0,1,17.331,3.8s-3.6,22.762-3.614,22.83c-1.077,6.808,7.011,11.789,12.6,7.722L208.5,68.277a11.477,11.477,0,0,1,15.8,2.5L248.156,103.6a11.455,11.455,0,0,1-2.462,15.774l-82.307,58.093a8,8,0,0,0-2.741,3.385L105.411,309.732a38.478,38.478,0,0,1-47.254,21.221c-23.269-7.756-33.2-37-20.7-57.823L126.86,124.116a7.979,7.979,0,0,0,.893-2.143l6.107-24-15.506-3.946-5.818,22.863S23.8,264.781,23.732,264.9C5.92,294.585,20.275,335.191,53.1,346.131a54.956,54.956,0,0,0,56.029-13.617L136,323.229V488a8,8,0,0,0,8,8H440a8,8,0,0,0,8-8V384H432v96H376V352h56v16ZM352,112a16,16,0,0,1,0,32ZM239.16,64l-1.91-2.628A27.313,27.313,0,0,0,199.1,55.333l-11.2,8.136a15.713,15.713,0,0,1-4.585-2.035A16.174,16.174,0,0,1,176,48a16,16,0,0,1,16-16h88a56.063,56.063,0,0,1,56,56v5.582L318.656,67.563A8,8,0,0,0,312,64Zm-21.622,94.828a63.165,63.165,0,0,0,25.937-6.012l-4.423-9.173,15.919-11.236.09-.065A27.314,27.314,0,0,0,261.1,94.19L250.787,80h56.931L336,122.422V176c0,2.449-.11,4.9-.328,7.282a80,80,0,0,1-158.832,4.27Zm78.462.027a63.705,63.705,0,0,1-27.475-6.035l6.95-14.412c12.277,5.919,28.773,5.919,41.05,0l6.95,14.412A63.705,63.705,0,0,1,296,158.855ZM228.587,216.64l-9.174-13.109a64.015,64.015,0,0,1,73.174,0l-9.174,13.109A47.962,47.962,0,0,0,228.587,216.64Zm80.262,64.007,6.3,14.706a150.825,150.825,0,0,1-118.3,0l6.3-14.706A134.758,134.758,0,0,0,308.849,280.647Zm128.808-198.3a8,8,0,0,1,1.5,9.235l-16,32-14.31-7.156L422.266,89.58,410.343,77.657a8,8,0,0,1-1.5-9.235l16-32,14.31,7.156L425.734,70.42Zm47.941,31.8,10.892,11.72-21.983,20.43,6.982,15.347a8,8,0,0,1-1.835,9.174l-26.208,24.355-10.892-11.721,21.984-20.43-6.982-15.348a8,8,0,0,1,1.835-9.173Z"/></g></svg>
