<?xml version="1.0"?>
<svg xmlns="http://www.w3.org/2000/svg" fill="#D63885" viewBox="0 0 512 512" width="512" height="512"><g id="Outline"><path d="M402.8,96H496v16H400a8,8,0,0,1-4.994-1.75l-4.53-3.62c-3.666-2.934-7.428-5.817-11.185-8.573l9.463-12.9c3.937,2.888,7.878,5.908,11.714,8.978Zm5.811,160H496v16H414.389c.1.438.209.873.3,1.312L399,276.467A50.859,50.859,0,0,0,349.13,235.69c-.732,0-1.452.028-2.175.054A8,8,0,0,1,339,225.454a50.863,50.863,0,0,0-88.714-46.022,8,8,0,0,1-12.566,0,50.86,50.86,0,0,0-89.973,22.033A51.318,51.318,0,0,0,149,225.455a8,8,0,0,1-7.958,10.289c-.723-.026-1.444-.054-2.175-.054a50.869,50.869,0,0,0-49.079,37.438l-15.436-4.215A66.875,66.875,0,0,1,131.508,220.1,66.866,66.866,0,0,1,244,162.59,66.441,66.441,0,0,1,290.26,144a67.268,67.268,0,0,1,6.931.359,115.745,115.745,0,0,1-8.994-15.81A121.787,121.787,0,0,1,281.84,112H191.978a39.956,39.956,0,0,1-63.956,0c-8.744,0-18.551.035-22.751,9.416a15.8,15.8,0,0,0,2.3,16.275c6.524,7.722,18.351,7.247,28.395,6.111q.015,8.082.029,16.163c-6.056.993-12.234-.086-18.369-.238s-12.764.85-17.173,5.119c-5.323,5.154-5.69,14.347-1.326,20.335s12.665,8.515,19.843,6.674l-.025,15.859C104.217,210.673,88,201.9,82.423,187.948s.124-31.487,12.832-39.493A32.106,32.106,0,0,1,120,96h.805a40,40,0,1,1,78.39,0h61.923L222.176,70.568c-.072-.047-.145-.095-.215-.145a29.672,29.672,0,0,1-12.38-19.8c-2.565-16.095,10.711-34.12,27.5-34.655,7-.222,13.733,2.406,20.239,4.992l49.723,19.764c7.477-18.094,29.622-28.644,48.383-23.051s31.516,26.546,27.865,45.78-23.194,34.058-42.7,32.388-36.246-19.6-36.574-39.174L249.75,35.113c-4.207-1.671-8.652-3.374-13.136-2.746C224.964,34,221.136,50.78,231.045,57.251L292.374,97.3a7.991,7.991,0,0,1,3.464,5.114,96.888,96.888,0,0,0,6.842,19.33c11.123,23.681,34.125,50.938,80.524,46.294l1.592,15.92c-4.106.411-8.06.606-11.861.606a98.332,98.332,0,0,1-22.326-2.476,66.837,66.837,0,0,1,5.884,38A66.651,66.651,0,0,1,408.615,256ZM320,56a24,24,0,1,0,24-24A24.028,24.028,0,0,0,320,56ZM184,88a24,24,0,1,0-24,24A24.028,24.028,0,0,0,184,88ZM290.257,192a18.8,18.8,0,0,1,9.639,2.654l8.208-13.732a34.829,34.829,0,0,0-45.252,8.408l-5.136,6.519,12.568,9.9,5.136-6.519A18.8,18.8,0,0,1,290.257,192Zm50.165,256.845C321.688,458.212,273.846,480,234.334,480H88a16,16,0,0,1,0-32h88V432H64a16,16,0,0,1,0-32H176V384H48a16.015,16.015,0,0,1-14.746-22.227l-14.736-6.23a32.019,32.019,0,0,0,18.9,42.659,31.987,31.987,0,0,0,22.993,49.6A31.99,31.99,0,0,0,88,496H234.334c17.583,0,55.33-4.184,111.546-32H496V448H344A7.994,7.994,0,0,0,340.422,448.845ZM336.469,286.13a352.462,352.462,0,0,0-78.879-47.667c-.092-.04-.185-.079-.278-.115l-55.255-21.743a29.914,29.914,0,0,0-29.072,51.924L199.552,288H56a32,32,0,0,0,0,64H176V336H56a16,16,0,0,1,0-32H224a8,8,0,0,0,4.729-14.452l-46.35-33.971c-.047-.034-.094-.068-.142-.1a13.914,13.914,0,0,1,13.556-24.147c.092.04.185.079.277.115l55.243,21.738a336.519,336.519,0,0,1,75.161,45.442L331,302.247A8,8,0,0,0,336,304H496V288H338.807ZM307.51,400.223q.128,1.7.127,3.414A45.819,45.819,0,1,1,253.9,358.5a41.092,41.092,0,1,1,53.612,41.72ZM320,361.091a25.091,25.091,0,0,0-50.182,0c0,3.71,1.088,6.887-1.634,10a8.038,8.038,0,0,1-6.09,2.733c-.12,0-.24,0-.358-.009a29.8,29.8,0,1,0,28.919,22.212,8.21,8.21,0,0,1,6.906-9.989A25.011,25.011,0,0,0,320,361.091Z"/></g></svg>
