<?xml version="1.0"?>
<svg xmlns="http://www.w3.org/2000/svg" fill="#D63885" viewBox="0 0 512 512" width="512" height="512"><g id="Outline"><path d="M216,448h16v16H216Zm24-328a8,8,0,0,0-4.422-7.155l-32-16-7.156,14.31L214.111,120l-17.689,8.845,7.156,14.31,32-16A8,8,0,0,0,240,120Zm36.422,7.155,32,16,7.156-14.31L297.889,120l17.689-8.845-7.156-14.31-32,16a8,8,0,0,0,0,14.31Zm-242.573-16.6a13.1,13.1,0,0,0,3.626,11.608L48,132.687l56-56V44a4,4,0,0,0-8,0v4a8,8,0,0,1-12.438,6.656L64.878,42.2a13.105,13.105,0,0,0-18.2,3.684L33.326,37.062a29.1,29.1,0,0,1,40.428-8.174l8.589,5.726A20,20,0,0,1,120,44V76.5l25.115,23.184A31.972,31.972,0,0,1,160,96h3.039a95.144,95.144,0,0,1,9.186-22.869A31.982,31.982,0,0,1,192,16h88a72.081,72.081,0,0,1,72,72v8a32,32,0,0,1,25.969,50.692A85.61,85.61,0,0,1,456,231.934c0,29.522.867,59.215-1.916,88.639-1.015,10.841-2.482,21.874-4.361,32.784l-15.768-2.714c1.809-10.507,3.222-21.128,4.2-31.569,2.6-28.971,1.845-58.085,1.845-87.14A69.558,69.558,0,0,0,335.93,171.54l-19.961,11.406A8,8,0,0,1,312,184H216a8,8,0,0,1-5.426-2.122L112.222,91.092,59.313,144,76,160.687l38.343-38.344,11.314,11.314L87.313,172l83.6,83.6a55.634,55.634,0,0,0,39.6,16.4H368v16H290.575a27.368,27.368,0,0,1,6,6.019l23.849,32.818a27.625,27.625,0,0,1-6.038,38.153l-.1.069L264,400.474V480H409.38L431,366.5,446.72,369.5l-22.861,120A8,8,0,0,1,416,496H136a80.091,80.091,0,0,1-80-80V248a103.943,103.943,0,0,1,13.918-52.007l13.849,8.014A87.92,87.92,0,0,0,72,248V394.783l64-33.5V291h16v61.907l20.546-10.755,14.233-51.224a24.845,24.845,0,0,1,2.574-6.075A71.636,71.636,0,0,1,159.6,266.912L26.161,133.475a29.108,29.108,0,0,1-8.054-25.784l9.658-53.122,15.742,2.862Zm149.24,330.5-29.745-44.617,13.312-8.876,29.076,43.615,22.22-17.362-1-1.356L176.943,357.91,72,412.842V416a64.07,64.07,0,0,0,61.332,63.932ZM248,411.741l-14.243,10.03L159.232,480H248ZM233.749,288a24.731,24.731,0,0,1,1.6,13.425l-.594,3.754L248,295.556V288ZM202.2,295.186l-14.128,50.846,37.009,50.453,5.72,7.8,74.219-52.266a11.312,11.312,0,0,0,2.46-15.773l-23.849-32.818a11.314,11.314,0,0,0-15.8-2.5l-39.29,28.552a8,8,0,0,1-12.6-7.722l3.613-22.83a8.886,8.886,0,0,0-17.346-3.738ZM352,144a16,16,0,0,0,0-32v32ZM176,48a16.019,16.019,0,0,0,16,16H312a8,8,0,0,1,6.656,3.562L336,93.578V88a56.064,56.064,0,0,0-56-56H192A16.019,16.019,0,0,0,176,48Zm0,80.19,39.486,36.448A69.16,69.16,0,0,1,256,152c16.765,0,32.9,5.8,44.8,16h9.071l18.116-10.352A86.037,86.037,0,0,1,336,153.619v-31.2L307.719,80H192a32.089,32.089,0,0,1-5.049-.4A79.54,79.54,0,0,0,176,120Zm259.578.655-7.182,14.3c1.781.906,43.6,22.87,43.6,80.857h16C488,155.839,437.718,129.915,435.578,128.845ZM366.913,65.186l12.536,9.942,34.5-43.5-12.536-9.943Zm25.977,42.472,5.58,15,64.5-24-5.58-14.995ZM324.823,371.287,334.542,384c29.128-22.274,22.769-56,22.484-57.421l-15.689,3.137C341.387,329.964,346.112,355.007,324.823,371.287Zm-14.6-159.606,16.426,20.2,12.413-10.095-16.426-20.2Zm-22.132,31.73,1.21-23.539-15.979-.822-1.21,23.539Z"/></g></svg>
