<?xml version="1.0"?>
<svg xmlns="http://www.w3.org/2000/svg" fill="#D63885" viewBox="0 0 512 512" width="512" height="512"><g id="Outline"><path d="M80,320v-8a56.009,56.009,0,0,1-46.661-86.975l13.322,8.86A40.008,40.008,0,0,0,80,296V272H96v48A159.989,159.989,0,0,0,377.9,423.629c2.658-3.118,5.22-6.373,7.625-9.681l12.942,9.407c-2.645,3.64-5.465,7.22-8.381,10.644a176.435,176.435,0,0,1-30.75,28.475A176.005,176.005,0,0,1,80,320Zm152.08-49.131-8,56,15.84,2.262,8-56ZM208,352h96a24,24,0,0,1,0,48H208a24,24,0,0,1,0-48Zm96,16H208a8,8,0,0,0,0,16h96a8,8,0,0,0,0-16ZM16,176V96A48.055,48.055,0,0,1,61.768,48.057L56.239,25.94A8.068,8.068,0,0,1,64,16H304a127.683,127.683,0,0,1,75.167,24.405A40,40,0,0,1,456,56V205.4a56,56,0,0,1,0,101.194v6.226A55.994,55.994,0,0,1,416,408h-.266A55.994,55.994,0,0,1,376,312.817V264H304V248h72V215.1a85.55,85.55,0,0,1-75.623-19.345l10.586-12A69.593,69.593,0,0,0,376,198.582V178.806L348.155,144H280V128h72a8,8,0,0,1,6.247,3L376,153.194V58.229A111.691,111.691,0,0,0,304,32H74.246l4,16H244a27.987,27.987,0,0,1,19.577,48,27.956,27.956,0,0,1,0,40,27.956,27.956,0,0,1,0,40A27.987,27.987,0,0,1,244,224H145.08l15.4,18.482A30.939,30.939,0,0,1,164.15,248H208v16H167.329c-.011.1-.015.206-.027.309-1.594,13.64-13.882,23.634-27.409,23.634a28.306,28.306,0,0,1-21.14-9.375L68.492,224H64A48.054,48.054,0,0,1,16,176ZM456,287.978a40.2,40.2,0,0,0,4.284-3.695A40,40,0,0,0,456,224ZM392,128h16V112H392Zm16,224a8,8,0,1,0,8-8A8.009,8.009,0,0,0,408,352ZM392,160h16V144H392Zm0,32h16V176H392Zm0,32h16V208H392Zm0,32h16V240H392Zm0,32h16V272H392Zm-15.969,65.59A40.379,40.379,0,0,0,415.811,392H416a39.993,39.993,0,0,0,26.664-69.807A8,8,0,0,1,440,316.232V56a24,24,0,0,0-48,0V96h16V64h16V329.376a24,24,0,1,1-16,0V304H392v12.232a8,8,0,0,1-2.664,5.961A39.94,39.94,0,0,0,376.031,353.59ZM32,176a32.036,32.036,0,0,0,32,32c4.5,0,10.471-1.126,13.885,2.581l52.679,57.193.095.105c6.129,6.9,19.585,4.591,20.751-5.432a13.093,13.093,0,0,0-3.219-9.721l-26.337-31.6A7.993,7.993,0,0,1,120.006,216c-.006-30.756-7.869-51.327-14.465-63.168-7.107-12.759-14.313-18.411-14.386-18.466L100.8,121.6c1.379,1.034,32.5,25.1,35.031,86.4H244a12,12,0,0,0,0-24H160V168h84a12,12,0,0,0,0-24H160V128h84a12,12,0,0,0,0-24H160V88h84a12,12,0,0,0,0-24H64A32.036,32.036,0,0,0,32,96Z"/></g></svg>
